<svg width="56" height="56" viewBox="0 0 56 56" fill="none" xmlns="http://www.w3.org/2000/svg">
<circle cx="28" cy="28" r="28" fill="#FF0880" fill-opacity="0.1"/>
<path d="M22.175 33.5402L23.6855 31.6527L18.8231 27.7631L23.6855 23.8735L22.175 21.9861L16.1334 26.8194C15.9918 26.9326 15.8775 27.0762 15.799 27.2396C15.7205 27.4029 15.6797 27.5819 15.6797 27.7631C15.6797 27.9444 15.7205 28.1233 15.799 28.2867C15.8775 28.45 15.9918 28.5936 16.1334 28.7068L22.175 33.5402ZM33.3521 21.9861L31.8417 23.8735L36.704 27.7631L31.8417 31.6527L33.3521 33.5402L39.3938 28.7068C39.5354 28.5936 39.6496 28.45 39.7282 28.2867C39.8067 28.1233 39.8475 27.9444 39.8475 27.7631C39.8475 27.5819 39.8067 27.4029 39.7282 27.2396C39.6496 27.0762 39.5354 26.9326 39.3938 26.8194L33.3521 21.9861ZM31.3596 17.1491L26.5263 38.8991L24.1664 38.3747L28.9997 16.6247L31.3596 17.1491Z" fill="#FF0880"/>
</svg>
