<svg width="56" height="56" viewBox="0 0 56 56" fill="none" xmlns="http://www.w3.org/2000/svg">
<circle cx="28" cy="28" r="28" fill="#FA00C1" fill-opacity="0.1"/>
<path d="M35.0135 26.5549C36.8139 26.5549 38.4814 27.1228 39.8468 28.0774V22.9299C39.8468 21.5887 38.7714 20.5133 37.4302 20.5133H32.5968V18.0966C32.5968 16.7553 31.5214 15.6799 30.1802 15.6799H25.3468C24.0056 15.6799 22.9302 16.7553 22.9302 18.0966V20.5133H18.0968C16.7556 20.5133 15.6923 21.5887 15.6923 22.9299L15.6802 36.2216C15.6802 37.5628 16.7556 38.6383 18.0968 38.6383H27.3768C26.7638 37.3496 26.487 35.9267 26.5723 34.5022C26.6575 33.0777 27.1021 31.6979 27.8645 30.4916C28.6269 29.2853 29.6823 28.2916 30.9324 27.6033C32.1824 26.9149 33.5864 26.5542 35.0135 26.5549ZM25.3468 18.0966H30.1802V20.5133H25.3468V18.0966Z" fill="#FA00C1"/>
<path d="M35.0138 28.9714C31.6788 28.9714 28.9722 31.6781 28.9722 35.0131C28.9722 38.3481 31.6788 41.0548 35.0138 41.0548C38.3488 41.0548 41.0555 38.3481 41.0555 35.0131C41.0555 31.6781 38.3488 28.9714 35.0138 28.9714ZM37.0076 37.8527L34.4097 35.2548V31.3881H35.618V34.7594L37.8534 36.9948L37.0076 37.8527Z" fill="#FA00C1"/>
</svg>
