<svg width="20" height="20" viewBox="0 0 20 20" fill="none" xmlns="http://www.w3.org/2000/svg">
<g clip-path="url(#clip0_36_224)">
<path d="M10 18.75C7.67936 18.75 5.45376 17.8281 3.81282 16.1872C2.17187 14.5462 1.25 12.3206 1.25 10C1.25 7.67936 2.17187 5.45376 3.81282 3.81282C5.45376 2.17187 7.67936 1.25 10 1.25C12.3206 1.25 14.5462 2.17187 16.1872 3.81282C17.8281 5.45376 18.75 7.67936 18.75 10C18.75 12.3206 17.8281 14.5462 16.1872 16.1872C14.5462 17.8281 12.3206 18.75 10 18.75ZM10 20C12.6522 20 15.1957 18.9464 17.0711 17.0711C18.9464 15.1957 20 12.6522 20 10C20 7.34784 18.9464 4.8043 17.0711 2.92893C15.1957 1.05357 12.6522 0 10 0C7.34784 0 4.8043 1.05357 2.92893 2.92893C1.05357 4.8043 0 7.34784 0 10C0 12.6522 1.05357 15.1957 2.92893 17.0711C4.8043 18.9464 7.34784 20 10 20Z" fill="#4E9FFC"/>
<path d="M7.83875 6.31875C7.94098 6.26611 8.05575 6.24269 8.17043 6.25107C8.28511 6.25945 8.39526 6.2993 8.48875 6.36625L12.8638 9.49125C12.9448 9.54906 13.0108 9.62539 13.0564 9.71388C13.1019 9.80237 13.1257 9.90047 13.1257 10C13.1257 10.0995 13.1019 10.1976 13.0564 10.2861C13.0108 10.3746 12.9448 10.4509 12.8638 10.5087L8.48875 13.6337C8.39529 13.7006 8.2852 13.7405 8.17058 13.7488C8.05595 13.7572 7.94124 13.7338 7.83905 13.6813C7.73685 13.6287 7.65114 13.5489 7.59132 13.4508C7.53151 13.3527 7.49991 13.2399 7.5 13.125V6.875C7.49988 6.7601 7.53143 6.64739 7.5912 6.54926C7.65096 6.45113 7.73661 6.37137 7.83875 6.31875Z" fill="#4E9FFC"/>
</g>
<defs>
<clipPath id="clip0_36_224">
<rect width="20" height="20" fill="white"/>
</clipPath>
</defs>
</svg>
