<svg width="56" height="56" viewBox="0 0 56 56" fill="none" xmlns="http://www.w3.org/2000/svg">
<circle cx="28" cy="28" r="28" fill="#FF7D50" fill-opacity="0.1"/>
<path d="M30.5941 30.1882L31.8801 30.3232V40.7905L28.3281 36.9976V30.9633L29.3597 31.4671L30.5941 30.1882ZM24.9329 30.1882L23.6463 30.3232V40.7905L27.1982 36.9976V30.9633L26.1666 31.4671L24.9329 30.1882ZM34.674 23.6303L35.0901 25.0789L33.8409 25.9211L33.7363 27.4261L32.2744 27.79L31.6625 29.1672L30.1638 29.0089L29.1173 30.09L27.7635 29.4286L26.4097 30.09L25.3633 29.0053L23.8645 29.1636L23.2527 27.7865L21.7908 27.4261L21.6861 25.9232L20.4334 25.0781L20.8496 23.6297L19.9663 22.4094L20.8524 21.1905L20.4334 19.7449L21.6833 18.9026L21.7879 17.3996L23.2527 17.0393L23.8645 15.6622L25.3633 15.8205L26.4097 14.7358L27.7635 15.3972L29.1173 14.7358L30.1638 15.8205L31.6625 15.6622L32.2744 17.0393L33.7363 17.4032L33.8409 18.9061L35.0901 19.7484L34.674 21.1969L35.5607 22.4094L34.674 23.6303ZM31.8864 22.4094C31.8864 21.6001 31.6465 20.809 31.1968 20.1361C30.7472 19.4632 30.1082 18.9387 29.3605 18.629C28.6128 18.3193 27.7901 18.2383 26.9963 18.3962C26.2026 18.5541 25.4735 18.9438 24.9012 19.516C24.329 20.0883 23.9393 20.8174 23.7814 21.6111C23.6235 22.4049 23.7045 23.2276 24.0142 23.9753C24.324 24.723 24.8484 25.362 25.5213 25.8116C26.1942 26.2612 26.9853 26.5012 27.7946 26.5012C28.8793 26.4995 29.9191 26.0679 30.6861 25.3009C31.4531 24.5339 31.8847 23.4941 31.8864 22.4094ZM27.7946 19.4481C27.2089 19.4481 26.6364 19.6217 26.1494 19.9471C25.6624 20.2725 25.2829 20.735 25.0587 21.2761C24.8346 21.8172 24.776 22.4126 24.8902 22.987C25.0045 23.5615 25.2865 24.0891 25.7006 24.5033C26.1148 24.9174 26.6424 25.1995 27.2169 25.3137C27.7913 25.428 28.3867 25.3694 28.9278 25.1452C29.4689 24.9211 29.9314 24.5416 30.2568 24.0546C30.5822 23.5676 30.7559 22.9951 30.7559 22.4094C30.7537 21.6249 30.4409 20.8732 29.8859 20.3187C29.331 19.7641 28.5791 19.4519 27.7946 19.4502V19.4481Z" fill="#FF7D50"/>
</svg>
