<svg width="56" height="56" viewBox="0 0 56 56" fill="none" xmlns="http://www.w3.org/2000/svg">
<circle cx="28" cy="28" r="28" fill="#00AC85" fill-opacity="0.1"/>
<path d="M38.6387 34.1069V37.3567L34.1074 32.8255V26.8569C34.1073 26.6887 34.0604 26.5238 33.9719 26.3807C33.8834 26.2376 33.7568 26.122 33.6063 26.0467L28.6699 23.5772V18.5448L31.0135 20.8884L32.2949 19.6069L27.7637 15.0757L23.2324 19.6069L24.5139 20.8884L26.8574 18.5448V23.5781L21.9211 26.0458C21.7704 26.1211 21.6437 26.2369 21.5552 26.3802C21.4667 26.5234 21.4198 26.6885 21.4199 26.8569V32.8255L16.8887 37.3567V34.1069H15.0762V40.4507H21.4199V38.6382H18.1701L22.5047 34.3036L27.3586 36.7305C27.4844 36.7933 27.6231 36.826 27.7637 36.826C27.9043 36.826 28.043 36.7933 28.1688 36.7305L33.0226 34.3036L37.3572 38.6382H34.1074V40.4507H40.4512V34.1069H38.6387ZM26.8574 34.4531L23.2324 32.6406V28.3232L26.8574 30.1357V34.4531ZM27.7637 28.5625L24.3525 26.8569L27.7637 25.1514L31.1748 26.8569L27.7637 28.5625ZM32.2949 32.6406L28.6699 34.4531V30.1357L32.2949 28.3232V32.6406Z" fill="#00AC85"/>
</svg>
