<svg width="20" height="20" viewBox="0 0 20 20" fill="none" xmlns="http://www.w3.org/2000/svg">
<path d="M13.416 3.2C13.8649 2.75129 14.4737 2.49927 15.1083 2.49939C15.743 2.49951 16.3517 2.75175 16.8004 3.20063C17.2491 3.64951 17.5011 4.25825 17.501 4.89295C17.5009 5.52764 17.2487 6.13629 16.7998 6.585L15.8835 7.5L16.2123 7.82875C16.6222 8.23895 16.8524 8.79511 16.8524 9.375C16.8524 9.9549 16.6222 10.5111 16.2123 10.9213L14.8173 12.3175C14.6999 12.4349 14.5407 12.5008 14.3748 12.5008C14.2088 12.5008 14.0496 12.4349 13.9323 12.3175C13.8149 12.2001 13.749 12.041 13.749 11.875C13.749 11.709 13.8149 11.5499 13.9323 11.4325L15.3285 10.0375C15.5041 9.86172 15.6027 9.62344 15.6027 9.375C15.6027 9.12657 15.5041 8.88829 15.3285 8.7125L14.9998 8.38375L7.55603 15.8275C7.32988 16.0535 7.05429 16.2238 6.75103 16.325L3.32228 17.4675C3.21226 17.504 3.09425 17.5092 2.98146 17.4825C2.86866 17.4558 2.76551 17.3982 2.68355 17.3162C2.60158 17.2343 2.54402 17.1311 2.51731 17.0183C2.4906 16.9055 2.49578 16.7875 2.53228 16.6775L3.67478 13.2488C3.77598 12.9455 3.94629 12.6699 4.17228 12.4438L13.416 3.2Z" fill="#0064D6"/>
</svg>
