<svg width="56" height="56" viewBox="0 0 56 56" fill="none" xmlns="http://www.w3.org/2000/svg">
<circle cx="28" cy="28" r="28" fill="#7032FF" fill-opacity="0.1"/>
<path d="M29.1846 22.5098L36.1881 15.5063C36.44 15.2545 36.739 15.0549 37.0681 14.9187C37.3972 14.7826 37.7499 14.7125 38.106 14.7127C38.4621 14.7128 38.8148 14.7831 39.1437 14.9195C39.4727 15.0559 39.7716 15.2558 40.0233 15.5077C40.2751 15.7596 40.4747 16.0587 40.6109 16.3877C40.747 16.7168 40.817 17.0695 40.8169 17.4256C40.8168 17.7818 40.7465 18.1344 40.6101 18.4634C40.4737 18.7923 40.2738 19.0912 40.0219 19.343L33.0184 26.345C32.6104 26.7532 32.0992 27.0429 31.5394 27.1831L29.3673 27.7254C29.1513 27.7792 28.9251 27.7763 28.7106 27.7168C28.4961 27.6574 28.3006 27.5435 28.1431 27.3862C27.9857 27.2288 27.8716 27.0335 27.8119 26.819C27.7523 26.6046 27.7491 26.3783 27.8027 26.1623L28.3465 23.9902C28.4855 23.4299 28.7754 22.9184 29.1846 22.5112V22.5098ZM28.1594 21.4846L33.4809 16.1631H18.3386C17.7617 16.1631 17.2085 16.3923 16.8006 16.8002C16.3927 17.208 16.1636 17.7613 16.1636 18.3381V32.8381C16.1636 33.415 16.3927 33.9682 16.8006 34.3761C17.2085 34.784 17.7617 35.0131 18.3386 35.0131H23.4136V37.9131H21.2386C21.0463 37.9131 20.8619 37.9895 20.7259 38.1255C20.59 38.2614 20.5136 38.4458 20.5136 38.6381C20.5136 38.8304 20.59 39.0148 20.7259 39.1508C20.8619 39.2867 21.0463 39.3631 21.2386 39.3631H34.2886C34.4809 39.3631 34.6653 39.2867 34.8012 39.1508C34.9372 39.0148 35.0136 38.8304 35.0136 38.6381C35.0136 38.4458 34.9372 38.2614 34.8012 38.1255C34.6653 37.9895 34.4809 37.9131 34.2886 37.9131H32.1136V35.0131H37.1886C37.7654 35.0131 38.3186 34.784 38.7265 34.3761C39.1344 33.9682 39.3636 33.415 39.3636 32.8381V22.0501L34.045 27.3716C33.4505 27.9647 32.7052 28.3866 31.8903 28.5896L29.7182 29.1319C27.7128 29.6336 25.8945 27.8168 26.3977 25.8114L26.94 23.6379C27.1429 22.8228 27.564 22.0785 28.158 21.4846H28.1594ZM30.6636 35.0131V37.9131H24.8636V35.0131H30.6636Z" fill="#7032FF"/>
</svg>
